<svg width="512" height="512" viewBox="0 0 512 512" fill="none" xmlns="http://www.w3.org/2000/svg">
<g clip-path="url(#clip0_12_2)">
<path opacity="0.995" fill-rule="evenodd" clip-rule="evenodd" d="M271.198 33.6569C271.643 33.6569 272.088 33.6569 272.533 33.6569C273.647 35.9444 274.76 38.2318 275.873 40.5193C335.037 149.955 394.042 259.525 452.888 369.23C449.751 367.611 446.411 366.925 442.868 367.172C436.444 368.229 429.987 368.572 423.497 368.201C418.723 366.988 416.719 364.014 417.485 359.28C424.358 360.072 431.261 360.529 438.192 360.652C440.562 360.146 442.454 358.889 443.87 356.878C442.342 354.112 441.006 351.139 439.862 347.957C436.341 345.475 432.444 344.674 428.173 345.555C425.596 346.428 422.924 347.115 420.157 347.614C415.913 350.251 411.905 353.225 408.133 356.535C404.313 358.431 400.305 359.689 396.11 360.309C395.301 363.556 393.52 366.187 390.766 368.201C386.205 371.574 381.529 374.776 376.738 377.808C375.026 378.549 373.245 378.892 371.394 378.838C371.248 378.031 371.471 377.345 372.062 376.779C378.674 372.163 384.797 366.903 390.432 360.995C390.822 356.449 388.929 354.962 384.754 356.535C382.972 358.365 381.192 360.195 379.41 362.025C373.325 365.066 367.982 369.184 363.379 374.377C360.055 375.119 356.715 375.805 353.359 376.436C350.035 379.515 346.473 382.26 342.671 384.671C336.51 386.921 330.72 389.894 325.304 393.592C317.905 395.937 310.335 397.309 302.593 397.709C296.797 399.773 291.008 401.832 285.225 403.886C280.271 404.421 275.372 404.078 270.53 402.856C253.462 407.036 236.317 407.379 219.095 403.886C209.075 403.428 199.056 403.428 189.036 403.886C187.863 404.024 186.75 404.367 185.696 404.915C188.476 407.004 191.593 408.262 195.048 408.689C202.917 408.987 210.71 409.903 218.427 411.434C223.223 413.619 226.006 417.393 226.777 422.757C229.288 424.754 231.181 424.297 232.455 421.385C232.081 418.942 230.745 417.341 228.447 416.581C226.21 413.426 226.99 411.596 230.785 411.091C236.529 411.694 241.094 414.325 244.478 418.983C247.132 421.321 249.693 421.206 252.16 418.64C253.522 411.397 257.196 409.911 263.182 414.179C265.572 419.352 269.469 421.524 274.871 420.699C275.317 420.012 275.317 419.326 274.871 418.64C273.073 417.217 271.403 415.73 269.862 414.179C270.521 412.587 271.634 411.443 273.201 410.748C286.206 409.815 298.786 406.955 310.942 402.17C313.778 402.528 316.227 403.671 318.29 405.601C318.868 407.24 318.311 408.269 316.62 408.689C313.948 408.918 311.276 409.147 308.604 409.376C307.103 410.745 306.435 412.46 306.6 414.522C310.997 414.671 315.005 413.413 318.624 410.748C321.257 410.067 323.929 409.609 326.64 409.376C327.357 408.868 327.803 408.182 327.976 407.317C326.517 405.01 325.181 402.609 323.968 400.111C324.917 396.97 326.921 395.941 329.98 397.023C344.029 400.94 358.279 401.854 372.73 399.768C377.828 398.634 382.504 396.576 386.758 393.592C388.036 392.622 388.927 391.364 389.43 389.818C387.133 386.176 387.022 382.517 389.096 378.838C393.732 375.258 398.52 371.941 403.457 368.887C405.299 368.486 407.08 368.716 408.801 369.573C418.104 375.324 427.79 380.242 437.858 384.328C444.643 383.562 446.313 380.246 442.868 374.377C442.944 373.499 443.389 372.927 444.204 372.662C448.637 375.146 449.863 378.806 447.878 383.641C441.466 391.329 433.673 393.387 424.499 389.818C421.598 388.842 418.815 387.585 416.149 386.043C412.587 382.841 409.024 379.639 405.461 376.436C401.727 375.808 398.387 376.723 395.442 379.181C394.388 381.57 395.056 383.4 397.446 384.671C400.43 386.305 403.548 387.677 406.797 388.788C409.27 390.525 409.827 392.698 408.467 395.308C405.545 396.466 403.095 398.296 401.119 400.798C400.22 403.11 398.996 405.169 397.446 406.974C393.682 404.297 389.563 402.467 385.088 401.484C382.592 401.81 380.254 402.611 378.074 403.886C376.888 406.215 377.334 408.044 379.41 409.376C383.876 409.652 388.106 410.795 392.102 412.807C395.581 415.009 395.581 417.068 392.102 418.983C382.508 421.183 372.933 423.47 363.379 425.845C353.704 426.487 344.13 427.86 334.656 429.963C318.732 434.218 302.701 437.993 286.561 441.286C284.059 440.992 282.056 439.848 280.549 437.855C277.776 439.224 274.881 440.253 271.865 440.943C260.732 441.171 249.6 441.401 238.467 441.629C235.795 441.972 233.123 442.315 230.451 442.658C220.029 441.086 209.564 440.858 199.056 441.972C179.473 440.055 159.878 438.569 140.274 437.512C137.525 436.672 135.075 435.3 132.926 433.394C128.976 431.523 124.968 431.294 120.902 432.708C118.281 434.892 118.281 436.95 120.902 438.884C125.829 439.058 130.728 439.515 135.598 440.257C141.046 442.237 146.613 443.724 152.297 444.717C157.409 443.979 162.531 443.636 167.661 443.688C171.013 445.522 174.576 446.666 178.348 447.119C203.478 449.085 228.638 449.771 253.83 449.178C278.356 446.96 302.848 444.444 327.308 441.629C340.778 438.112 354.36 435.139 368.054 432.708C374.787 431.803 381.022 433.176 386.758 436.825C387.604 438.058 387.604 439.316 386.758 440.6C385.427 441.971 383.868 443.001 382.082 443.688C376.953 444.547 371.831 445.462 366.719 446.433C362.655 448.088 361.765 450.833 364.047 454.668C367.633 454.779 371.195 454.436 374.734 453.638C378.743 453.703 380.747 455.876 380.746 460.158C380.718 461.507 380.384 462.766 379.744 463.932C377.099 465.903 374.316 467.618 371.394 469.079C378.443 472.999 384.789 471.97 390.432 465.991C391.489 464.533 391.6 463.047 390.766 461.53C387.39 460.09 384.607 457.917 382.416 455.011C381.97 454.096 381.97 453.181 382.416 452.266C387.594 448.906 393.272 447.533 399.449 448.148C406.88 447.639 413.783 449.355 420.157 453.295C422.712 454.827 422.712 456.199 420.157 457.413C416.627 458.117 413.064 458.574 409.469 458.785C405.35 459.129 401.898 460.845 399.115 463.932C398.425 465.797 398.982 467.055 400.785 467.706C406.434 468.311 412.001 467.853 417.485 466.334C420.428 465.367 422.21 463.308 422.829 460.158C425.549 459.706 428.221 459.935 430.844 460.844C434.8 462.579 438.807 464.181 442.868 465.648C442.845 470.88 445.294 472.709 450.216 471.138C454.753 467.621 459.095 463.846 463.241 459.815C463.869 455.181 461.976 452.093 457.564 450.55C454.696 449.725 452.358 450.526 450.55 452.952C449.034 456.482 447.92 460.143 447.21 463.932C446.933 464.246 446.599 464.475 446.208 464.618C445.358 461.891 444.578 459.146 443.87 456.383C439.745 454.491 435.625 452.547 431.512 450.55C429.386 448.878 428.718 446.819 429.509 444.374C435.003 445.338 440.459 446.596 445.874 448.148C449.076 447.891 452.193 447.205 455.226 446.09C459.578 447.898 462.25 446.525 463.241 441.972C464.272 440.683 465.497 439.654 466.915 438.884C472.714 439.342 478.503 439.228 484.283 438.541C484.392 436.697 484.281 434.867 483.949 433.051C483.346 432.227 482.567 431.654 481.611 431.335C476.713 430.878 471.814 430.878 466.915 431.335C461.356 432.409 455.79 433.438 450.216 434.423C446.003 432.962 441.995 431.018 438.192 428.59C435.966 427.904 433.739 427.218 431.512 426.532C428.81 425.522 428.253 423.807 429.843 421.385C430.79 420.726 431.792 420.154 432.848 419.669C439.306 419.212 445.762 419.212 452.22 419.669C457.868 420.763 462.99 423.05 467.583 426.532C470.853 428.175 473.859 427.831 476.601 425.502C477.047 424.588 477.047 423.672 476.601 422.757C475.176 421.396 473.506 420.48 471.591 420.012C470.409 419.107 470.186 418.077 470.923 416.924C473.3 416.824 475.526 416.252 477.603 415.209C482.234 423.582 486.688 432.045 490.963 440.6C489.478 440.379 488.253 440.836 487.289 441.972C487.211 445.679 485.541 448.31 482.279 449.864C478.54 450.276 474.866 449.933 471.257 448.835C469.12 448.592 467.338 449.279 465.913 450.893C466.511 453.155 467.513 455.327 468.919 457.413C472.037 457.641 475.154 457.87 478.271 458.099C479.324 460.488 478.656 462.318 476.267 463.589C472.908 464.243 469.79 465.501 466.915 467.363C465.176 469.758 465.844 471.36 468.919 472.167C479.377 472.452 489.841 472.109 500.314 471.138C504.474 468.751 504.696 466.006 500.982 462.903C498.756 462.674 496.529 462.445 494.302 462.216C492.401 461.613 491.956 460.469 492.967 458.785C495.948 458.668 497.729 457.181 498.31 454.325C502.264 460.845 506.05 467.479 509.666 474.226C509.666 474.912 509.666 475.598 509.666 476.284C508.646 476.234 507.978 476.692 507.662 477.657C338.663 477.657 169.665 477.657 0.666016 477.657C0.666016 476.513 0.666016 475.37 0.666016 474.226C30.3356 425.844 60.172 377.578 90.1752 329.428C150.683 230.953 211.024 132.363 271.198 33.6569Z" fill="#047857"/>
<path fill-rule="evenodd" clip-rule="evenodd" d="M275.873 40.5193C274.095 44.438 274.205 48.3268 276.207 52.1855C281.262 57.0772 284.602 63.0247 286.227 70.0278C288.198 73.1972 290.425 76.1709 292.907 78.949C294.65 82.7594 296.209 86.6481 297.583 90.6151C299.809 94.7326 302.036 98.8501 304.262 102.968C305.143 104.962 305.366 107.021 304.93 109.144C304.148 110.1 303.146 110.672 301.925 110.859C299.698 110.974 297.471 111.088 295.245 111.202C285.873 110.513 276.521 109.599 267.19 108.457C256.716 109.526 246.474 111.699 236.463 114.977C232.691 116.317 230.797 118.947 230.785 122.869C232.35 125.561 234.688 126.934 237.799 126.986C244.315 126.056 250.772 124.798 257.17 123.212C260.818 122.581 264.492 122.238 268.192 122.182C278.103 122.966 288.012 123.538 297.917 123.898C301.99 122.975 303.882 120.344 303.594 116.006C305.815 113.633 308.375 113.062 311.276 114.291C314.282 117.95 313.614 120.695 309.272 122.526C312.454 124.446 315.46 126.618 318.29 129.045C319.24 130.781 319.462 132.611 318.958 134.535C307.542 135.926 296.298 134.897 285.225 131.447C276.748 130.972 268.286 131.201 259.842 132.133C257.648 132.654 255.644 133.569 253.83 134.878C249.982 135.352 246.197 135.009 242.474 133.849C237.604 134.646 232.706 135.218 227.779 135.564C224.052 136.38 220.712 137.981 217.759 140.368C215.087 143.113 215.087 145.858 217.759 148.603C220.701 150.259 223.818 151.288 227.111 151.691C230.87 150.741 234.656 150.169 238.467 149.975C241.737 155.497 240.179 158.815 233.791 159.926C231.36 159.158 229.356 157.671 227.779 155.465C227.111 155.351 226.443 155.237 225.775 155.122C220.239 157.688 214.45 159.404 208.407 160.269C203.058 163.048 202.39 166.707 206.404 171.249C208.1 171.967 209.88 172.31 211.747 172.278C215.852 171.687 219.972 171.229 224.105 170.906C229.326 171.628 234.558 172.314 239.803 172.964C245.896 171.84 251.908 172.07 257.838 173.651C262.051 172.359 266.281 171.215 270.53 170.219C278.36 171.289 279.028 173.92 272.533 178.111C268.042 178.45 263.589 178.106 259.174 177.082C253.589 179.317 247.8 180.69 241.806 181.199C236.769 180.71 231.759 180.024 226.777 179.141C215.503 180.69 204.259 180.804 193.044 179.484C191.998 178.328 191.33 176.956 191.04 175.366C194.257 168.396 197.485 161.419 200.726 154.436C205.565 147.923 210.241 141.29 214.753 134.535C223.863 116.498 234.55 99.5707 246.816 83.7527C248.003 81.5431 249.005 79.2555 249.822 76.8903C250.773 78.4122 252.109 79.4416 253.83 79.9784C261.411 81.2175 268.981 81.2175 276.541 79.9784C282.347 78.1576 282.57 76.0989 277.209 73.8022C271.814 73.735 266.47 73.2775 261.178 72.4297C257.243 69.7283 256.241 66.1827 258.172 61.7929C262.309 56.9566 265.427 51.4666 267.524 45.323C269.771 42.6555 272.555 41.0542 275.873 40.5193Z" fill="#030402"/>
<path fill-rule="evenodd" clip-rule="evenodd" d="M266.522 59.7342C268.571 59.7662 270.575 60.1093 272.533 60.7635C273.453 62.5067 273.008 63.8792 271.197 64.881C267.18 65.4439 265.62 63.7283 266.522 59.7342Z" fill="#6E985B"/>
<path fill-rule="evenodd" clip-rule="evenodd" d="M261.846 89.2427C269.197 89.1284 276.545 89.2428 283.889 89.5858C290.532 91.0887 291.868 94.52 287.897 99.8795C286.468 100.843 284.91 101.415 283.221 101.595C278.368 100.644 273.469 100.186 268.526 100.223C261.828 100.802 255.149 101.374 248.486 101.938C243.073 101.246 241.959 98.7302 245.146 94.3895C250.43 91.4912 255.996 89.7756 261.846 89.2427Z" fill="#047857"/>
<path fill-rule="evenodd" clip-rule="evenodd" d="M284.557 146.887C287.975 147.68 288.755 149.739 286.895 153.063C284.768 155.358 282.207 156.159 279.213 155.465C277.794 153.813 277.906 152.097 279.547 150.318C281.168 148.979 282.838 147.835 284.557 146.887Z" fill="#090C08"/>
<path fill-rule="evenodd" clip-rule="evenodd" d="M255.834 148.26C258.818 148.008 261.712 148.351 264.518 149.289C265.411 152.488 264.297 154.776 261.178 156.151C258.951 156.609 256.724 156.609 254.498 156.151C249.848 152.717 250.293 150.086 255.834 148.26Z" fill="#040603"/>
<path fill-rule="evenodd" clip-rule="evenodd" d="M301.924 148.946C307.211 148.336 310.217 150.624 310.942 155.808C306.032 157.729 302.358 156.357 299.921 151.691C300.369 150.552 301.037 149.637 301.924 148.946Z" fill="#060805"/>
<path fill-rule="evenodd" clip-rule="evenodd" d="M282.553 165.416C283.055 164.679 283.723 164.565 284.557 165.073C286.968 166.407 289.195 168.008 291.237 169.876C301.079 169.837 302.415 173.268 295.245 180.17C292.777 182.376 290.105 182.833 287.229 181.542C286.047 180.193 285.379 178.592 285.225 176.739C285.891 173.899 286.003 171.04 285.559 168.161C285.03 166.689 284.028 165.775 282.553 165.416Z" fill="#040604"/>
<path fill-rule="evenodd" clip-rule="evenodd" d="M314.616 174.337C320.164 173.638 324.617 175.469 327.976 179.827C326.614 182.129 324.61 183.387 321.964 183.601C317.722 184.875 313.491 184.875 309.272 183.601C306.57 182.592 306.013 180.876 307.602 178.454C309.674 176.497 312.012 175.125 314.616 174.337Z" fill="#050604"/>
<path fill-rule="evenodd" clip-rule="evenodd" d="M216.423 183.944C219.106 183.533 221.444 184.219 223.437 186.003C223.343 189.317 221.673 191.49 218.427 192.522C206.158 193.959 194.134 196.476 182.356 200.071C178.557 204.066 179.448 206.468 185.028 207.277C190.614 205.631 196.18 203.915 201.728 202.13C205.5 202.336 209.285 202.336 213.083 202.13C215.428 201.088 217.766 200.059 220.097 199.042C224.484 200.409 225.486 203.04 223.103 206.934C212.904 208.413 202.884 210.7 193.044 213.796C190.639 215.201 188.301 216.688 186.03 218.257C179.851 216.482 173.729 216.825 167.661 219.286C166.507 220.239 165.616 221.383 164.989 222.717C165.231 224.011 166.01 224.583 167.327 224.433C171.775 223.119 176.117 221.518 180.352 219.629C182.242 219.662 183.801 220.348 185.028 221.688C181.356 224.886 177.57 227.974 173.673 230.952C170.804 232.106 167.909 232.221 164.989 231.295C164.138 227.066 163.137 222.948 161.983 218.943C163.73 216.004 165.734 213.259 167.995 210.708C170.019 204.457 172.802 198.624 176.344 193.209C178.384 191.703 180.612 190.559 183.024 189.777C191.252 189.034 199.49 188.348 207.739 187.719C210.848 186.803 213.743 185.545 216.423 183.944Z" fill="#040503"/>
<path fill-rule="evenodd" clip-rule="evenodd" d="M267.858 192.179C272.869 192.531 274.651 195.162 273.201 200.071C269.716 201.144 266.154 201.372 262.514 200.757C258.992 199.511 258.547 197.682 261.178 195.267C263.392 194.012 265.619 192.982 267.858 192.179Z" fill="#050704"/>
<path fill-rule="evenodd" clip-rule="evenodd" d="M294.577 192.866C298.579 192.922 302.476 193.608 306.266 194.924C308.199 195.422 309.646 196.566 310.608 198.355C308.893 200.497 306.667 201.754 303.928 202.13C298.304 203.097 292.96 202.296 287.897 199.728C287.153 198.889 287.041 197.974 287.563 196.983C289.613 194.961 291.951 193.589 294.577 192.866Z" fill="#060705"/>
<path fill-rule="evenodd" clip-rule="evenodd" d="M90.1752 329.428C93.3241 326.835 96.5524 324.318 99.8609 321.879C100.502 319.273 101.393 316.757 102.533 314.331C108.71 307.988 114.387 301.24 119.566 294.087C122.427 294.518 125.321 294.747 128.25 294.773C130.383 294.069 131.273 292.582 130.922 290.312C126.748 290.141 123.853 288.082 122.238 284.136C123.329 281.3 125.333 279.584 128.25 278.989C131.772 278.129 135.335 277.557 138.938 277.274C138.938 276.359 138.938 275.443 138.938 274.529C136.256 274.643 133.585 274.528 130.922 274.185C129.655 272.945 129.321 271.458 129.92 269.725C138.656 258.417 146.227 246.293 152.631 233.354C154.963 230.92 157.746 230.119 160.981 230.952C162.704 233.119 164.263 235.407 165.657 237.815C166.993 238.272 168.329 238.272 169.665 237.815C174.068 233.976 178.966 231.003 184.36 228.893C188.911 224.608 194.033 221.177 199.724 218.6C206.15 216.435 212.607 214.376 219.095 212.423C230.445 212.671 241.801 212.671 253.162 212.423C257.674 211.379 262.127 210.121 266.522 208.649C271.525 210.075 276.201 212.248 280.549 215.168C287.897 215.626 295.245 215.626 302.593 215.168C305.932 214.654 309.05 213.511 311.944 211.737C315.507 207.62 319.07 203.502 322.632 199.385C330.109 197.977 335.676 200.836 339.331 207.963C342.562 210.575 345.902 210.689 349.351 208.306C352.276 201.929 350.717 197.126 344.675 193.895C341.605 192.807 338.487 191.892 335.324 191.15C332.418 190.239 331.193 188.295 331.65 185.317C335.393 182.754 336.284 179.323 334.322 175.023C330.688 170.151 325.901 167.291 319.96 166.445C316.181 162.621 316.849 159.533 321.964 157.181C322.186 156.38 322.409 155.58 322.632 154.779C321.979 151.722 320.865 148.863 319.292 146.201C320.259 142.328 322.374 141.413 325.638 143.456C330.978 158.784 338.549 172.737 348.349 185.317C349.95 188.878 351.286 192.538 352.357 196.297C355.029 199.499 357.701 202.701 360.373 205.904C361.224 208.985 362.337 211.959 363.713 214.825C365.825 217.334 367.606 220.079 369.056 223.06C369.369 228.793 367.031 230.28 362.043 227.521C360.261 223.861 357.589 221.116 354.027 219.286C346.387 218.639 345.051 221.155 350.019 226.835C356.619 228.587 361.073 232.705 363.379 239.187C363.051 240.905 362.161 242.277 360.707 243.304C357.364 245.078 353.802 245.993 350.019 246.049C349.714 246.334 349.491 246.677 349.351 247.079C350.718 248.118 352.277 248.691 354.027 248.794C358.535 249.396 362.989 249.168 367.387 248.108C369.08 247.284 369.97 245.912 370.058 243.991C368.913 241.469 368.579 238.838 369.056 236.099C371.769 233.191 374.219 233.421 376.404 236.785C378.562 240.833 381.234 244.493 384.42 247.765C389.032 259.988 394.376 271.884 400.451 283.45C404.964 290.205 409.64 296.838 414.479 303.351C418.961 314.624 424.973 324.917 432.514 334.232C435.924 342.909 433.586 344.853 425.501 340.065C424.165 339.607 422.829 339.607 421.493 340.065C412.157 349.133 403.473 348.447 395.442 338.006C393.065 336.528 390.949 336.871 389.096 339.036C388.65 339.722 388.65 340.408 389.096 341.094C392.315 342.119 395.321 343.606 398.114 345.555C400.459 348.119 400.682 350.864 398.782 353.79C395.555 355.693 393.106 355.007 391.434 351.731C389.652 351.503 387.871 351.273 386.09 351.045C385.789 347.373 384.231 344.399 381.414 342.124C374.436 338.614 368.201 334.039 362.711 328.399C353.845 322.721 345.162 316.773 336.659 310.556C329.276 306.306 321.705 302.417 313.948 298.89C311.413 297.164 310.968 295.106 312.612 292.714C315.124 292.208 317.574 292.436 319.96 293.4C333.771 300.26 346.685 308.495 358.703 318.105C365.471 321.406 371.483 325.752 376.738 331.144C378.174 332.235 379.733 332.693 381.414 332.516C382.118 331.564 382.229 330.534 381.748 329.428C375.981 322.641 369.19 317.264 361.375 313.301C355.93 309.08 350.92 304.391 346.345 299.233C346.238 296.635 345.793 294.118 345.009 291.685C342.088 289.381 339.973 286.521 338.663 283.107C338.589 281.966 339.033 281.165 339.999 280.705C346.214 282.733 351.112 281.017 354.695 275.558C358.927 273.27 363.38 271.669 368.054 270.754C368.989 270.025 369.657 269.111 370.058 268.009C369.37 265.793 368.258 263.849 366.719 262.176C367.256 260.823 368.147 259.794 369.39 259.088C371.394 258.86 373.398 258.63 375.402 258.402C377.184 257.029 377.184 255.657 375.402 254.284C368.893 254.111 362.882 255.826 357.367 259.431C355.645 261.882 353.863 264.284 352.023 266.637C347.77 268.837 343.317 270.438 338.663 271.44C337.85 272.427 337.404 273.571 337.327 274.872C337.713 276.338 337.935 277.825 337.995 279.332C333.477 280.526 329.135 280.069 324.97 277.96C324.413 278.188 323.856 278.418 323.3 278.646C326.483 281.773 330.046 284.404 333.988 286.538C336.204 288.456 337.206 290.858 336.993 293.743C335.615 294.492 334.167 294.607 332.652 294.087C321.808 286.786 310.007 281.754 297.249 278.989C290.037 278.293 282.912 277.149 275.873 275.558C273.201 273.042 273.201 270.526 275.873 268.009C279.676 268.584 283.461 269.384 287.229 270.411C293.518 269.997 293.963 268.511 288.565 265.951C282.814 263.193 276.803 262.277 270.53 263.206C265.448 266.368 260.549 269.8 255.834 273.499C251.842 274.939 247.945 274.824 244.144 273.156C243.699 272.241 243.699 271.326 244.144 270.411C246.148 269.352 248.263 268.551 250.49 268.009C252.22 264.152 250.884 261.979 246.482 261.49C238.566 262.806 232.109 266.581 227.111 272.813C225.553 273.271 223.993 273.271 222.435 272.813C219.346 271.335 216.23 270.078 213.083 269.039C203.23 272.48 193.21 275.34 183.024 277.617C177.408 281.322 171.619 284.753 165.657 287.91C161.761 290.998 158.309 294.544 155.303 298.547C155.109 301.765 155.109 304.968 155.303 308.155C154.371 310.408 152.701 311.552 150.293 311.586C148.778 311.103 147.442 310.303 146.285 309.184C145.395 308.726 144.504 308.726 143.614 309.184C138.633 311.398 133.957 314.143 129.586 317.419C126.036 319.399 122.473 319.513 118.898 317.762C118.154 316.923 118.043 316.008 118.564 315.017C120.781 312.103 123.565 309.929 126.914 308.498C129.032 306.163 128.586 304.677 125.578 304.037C114.665 307.028 111.993 313.662 117.562 323.938C117.416 324.925 117.082 325.84 116.56 326.683C113.48 327.672 110.474 328.816 107.543 330.114C110.292 331.905 111.294 334.422 110.549 337.663C91.1739 346.265 89.9488 356.902 106.875 369.573C109.577 371.339 112.471 372.712 115.558 373.691C122.582 378.084 122.582 382.201 115.558 386.043C113.554 388.56 111.551 391.076 109.547 393.592C105.958 394.649 102.395 395.793 98.8589 397.023C98.4855 397.521 98.2631 398.092 98.191 398.739C100.884 405.94 98.4348 409.943 90.8432 410.748C88.5614 411.361 86.4459 411.018 84.4974 409.719C84.0519 408.575 84.0519 407.431 84.4974 406.288C85.7185 405.203 87.0544 404.287 88.5053 403.543C88.874 401.539 88.4285 399.709 87.1693 398.053C82.1528 392.844 76.141 389.413 69.1339 387.759C62.9343 389.063 60.9304 392.723 63.1221 398.739C65.7517 399.867 68.3123 401.125 70.8038 402.513C74.1611 406.093 76.9439 410.096 79.1536 414.522C83.3117 418.89 88.3216 421.749 94.1831 423.1C99.6619 423.675 105.006 424.818 110.215 426.532C111.241 427.629 111.575 428.888 111.217 430.306C109.837 431.644 108.389 432.902 106.875 434.08C110.004 439.357 108.445 441.645 102.199 440.943C99.0814 438.656 96.4095 435.911 94.1831 432.708C91.4905 431.023 88.5961 429.88 85.4994 429.277C76.3641 428.453 67.2353 427.538 58.1122 426.532C53.8257 425.935 49.5951 426.164 45.4206 427.218C41.8595 428.343 40.1895 430.745 40.4108 434.424C41.4065 435.456 42.6311 436.027 44.0847 436.139C49.8082 435.753 55.1521 437.012 60.1162 439.913C62.8922 437.934 62.6695 436.333 59.4482 435.11C58.4468 431.988 59.56 429.929 62.7881 428.934C67.1409 433.292 71.594 437.523 76.1477 441.629C81.5663 442.873 87.0217 442.987 92.5131 441.972C94.8938 442.37 97.2318 442.942 99.5269 443.688C101.252 446.124 101.141 448.526 99.1929 450.893C97.8937 451.829 96.4462 452.401 94.8511 452.609C94.4777 453.107 94.2552 453.678 94.1831 454.325C95.5738 458.679 98.0233 462.225 101.531 464.961C104.871 465.648 108.211 466.334 111.551 467.02C120.062 467.092 128.523 467.778 136.934 469.079C142.5 469.537 148.067 469.537 153.633 469.079C157.62 468.188 160.403 465.786 161.983 461.873C164.244 460.083 166.359 460.312 168.329 462.56C169.497 463.989 170.053 465.59 169.999 467.363C169.665 467.706 169.331 468.049 168.997 468.393C165.838 468.58 162.72 469.037 159.645 469.765C158.098 471.308 156.539 472.909 154.969 474.569C153.685 475.123 152.349 475.466 150.961 475.598C147.317 473.696 143.533 472.095 139.606 470.794C136.858 471.863 134.186 473.121 131.59 474.569C128.461 475.879 125.344 475.879 122.238 474.569C122.016 472.51 120.902 471.366 118.898 471.138C112.671 471.456 106.436 471.685 100.195 471.824C98.026 469.438 96.9131 466.579 96.855 463.246C96.2986 463.017 95.7415 462.788 95.1851 462.56C92.4784 463.729 89.918 465.216 87.5033 467.02C84.5174 468.49 81.4 468.948 78.1516 468.393C75.3708 467.146 74.8137 465.202 76.4817 462.56C78.2311 460.234 80.569 459.204 83.4954 459.471C83.8441 459.086 84.0666 458.629 84.1634 458.099C81.7179 454.43 78.378 451.914 74.1437 450.55C69.3383 449.217 64.4399 448.531 59.4482 448.492C56.3921 447.035 53.2748 445.777 50.0965 444.717C46.2728 445.703 44.8256 448.219 45.7546 452.266C46.8154 455.39 48.9307 457.334 52.1004 458.099C55.6668 459.129 59.2293 460.158 62.7881 461.187C63.8682 463.095 64.6475 465.154 65.126 467.363C66.3286 469.114 67.6645 470.716 69.1339 472.167C69.3623 475.359 67.9155 476.618 64.792 475.941C61.9311 474.147 59.2592 472.088 56.7763 469.765C53.1608 467.979 49.3756 466.72 45.4206 465.991C45.064 464.54 44.396 463.281 43.4167 462.216C38.0692 459.817 32.8367 459.932 27.7192 462.56C27.2738 463.932 27.2738 465.305 27.7192 466.677C29.8584 469.496 30.8604 472.699 30.7251 476.284C24.4118 476.555 18.1772 475.984 12.0217 474.569C9.76705 473.863 8.98778 472.376 9.68375 470.108C13.5219 464.332 17.8638 458.957 22.7093 453.981C23.8227 453.295 24.9359 452.609 26.0492 451.923C28.9837 451.911 31.7669 451.339 34.399 450.207C34.8996 449.428 34.7882 448.742 34.065 448.148C31.0569 446.801 29.721 444.399 30.0571 440.943C30.2993 437.048 31.0785 433.273 32.395 429.62C37.1597 423.508 41.6129 417.103 45.7546 410.405C47.6348 406.203 49.6387 402.086 51.7664 398.053C55.5517 393.249 59.3368 388.445 63.1221 383.641C66.628 376.662 70.6355 370.028 75.1457 363.74C79.1275 360.627 82.0219 361.542 83.8294 366.485C83.8588 369.674 82.2997 371.732 79.1536 372.662C77.6332 380.507 80.7507 385.082 88.5053 386.386C94.6687 385.393 100.792 385.621 106.875 387.073C111.25 387.294 112.363 385.579 110.215 381.926C101.507 377.568 94.6046 371.163 89.5072 362.711C87.3577 360.805 84.9082 359.433 82.1595 358.594C80.9137 356.818 80.3573 354.873 80.4895 352.76C82.8816 349.447 85.1086 346.016 87.1693 342.467C88.699 338.241 89.701 333.894 90.1752 329.428Z" fill="#030402"/>
<path fill-rule="evenodd" clip-rule="evenodd" d="M241.806 194.238C245.465 193.845 248.359 195.103 250.49 198.012C248.296 202.043 244.956 203.873 240.47 203.502C237.294 201.897 236.514 199.495 238.133 196.297C239.386 195.536 240.61 194.849 241.806 194.238Z" fill="#090B07"/>
<path fill-rule="evenodd" clip-rule="evenodd" d="M322.632 207.963C326.884 207.552 330.891 208.353 334.656 210.365C337.522 215.267 336.409 219.156 331.316 222.031C325.528 223.548 320.74 222.061 316.954 217.57C316.509 216.198 316.509 214.825 316.954 213.453C318.339 210.998 320.232 209.168 322.632 207.963Z" fill="#047857"/>
<path fill-rule="evenodd" clip-rule="evenodd" d="M241.806 220.315C243.001 220.12 244.114 220.348 245.146 221.002C244.924 221.23 244.701 221.459 244.478 221.688C240.194 223.945 236.074 226.461 232.121 229.236C231.363 232.462 232.588 234.291 235.795 234.726C241.107 232.946 246.451 231.23 251.826 229.58C257.461 226.685 263.25 224.169 269.194 222.031C276.508 220.97 283.856 220.741 291.237 221.345C293.338 221.42 294.006 222.335 293.241 224.09C288.409 224.524 283.621 224.181 278.879 223.06C276.972 223.315 275.079 223.658 273.201 224.09C268.81 226.916 264.134 229.204 259.174 230.952C256.158 234.945 257.16 237.346 262.18 238.158C268.874 236.067 275.665 234.351 282.553 233.011C286.902 232.303 291.133 232.646 295.245 234.04C296.135 235.184 296.135 236.327 295.245 237.471C290.537 239.293 287.197 242.495 285.225 247.079C278.742 252.125 271.617 255.899 263.85 258.402C251.158 260.372 238.467 260.487 225.775 258.745C222.83 259.589 219.936 260.618 217.091 261.833C209.136 263.066 201.232 264.553 193.378 266.294C191.122 266.475 189.228 265.789 187.7 264.235C191.869 261.688 195.765 258.713 199.39 255.314C201.829 250.117 200.382 247.487 195.048 247.422C190.126 249.505 187.566 253.279 187.366 258.745C181.519 265.872 175.619 265.987 169.665 259.088C166.648 257.926 163.753 256.667 160.981 255.314C161.121 254.912 161.344 254.568 161.649 254.284C166.114 253.827 170.567 253.942 175.009 254.627C178.811 254.557 182.263 253.413 185.362 251.196C186.01 248.913 185.231 247.427 183.024 246.736C183.915 245.821 184.806 244.905 185.696 243.991C191.774 241.285 198.009 238.998 204.4 237.128C216.897 231.273 229.367 225.669 241.806 220.315Z" fill="#047857"/>
<path fill-rule="evenodd" clip-rule="evenodd" d="M215.087 235.413C216.662 235.301 218.22 235.415 219.763 235.756C220.688 238.724 219.575 240.554 216.423 241.246C214.865 241.703 213.306 241.703 211.747 241.246C211.043 240.293 210.932 239.264 211.413 238.158C212.624 237.144 213.848 236.229 215.087 235.413Z" fill="#070A06"/>
<path fill-rule="evenodd" clip-rule="evenodd" d="M336.659 236.099C340.774 235.779 344.781 236.237 348.683 237.471C349.492 238.003 349.492 238.574 348.683 239.187C344.453 239.416 340.222 239.645 335.992 239.873C328.743 243.254 322.286 247.83 316.62 253.598C311.523 257.646 305.845 260.505 299.587 262.176C294.455 261.718 290.67 259.202 288.231 254.627C287.785 253.255 287.785 251.883 288.231 250.51C292.645 246.433 297.432 242.887 302.593 239.873C309.244 239.074 315.924 238.616 322.632 238.501C327.437 237.912 332.113 237.112 336.659 236.099Z" fill="#047857"/>
<path fill-rule="evenodd" clip-rule="evenodd" d="M227.779 247.079C230.806 246.783 233.7 247.126 236.463 248.108C235.822 249.113 234.932 249.684 233.791 249.824C230.696 250.474 227.579 250.931 224.439 251.196C224.605 248.97 225.719 247.598 227.779 247.079Z" fill="#090C07"/>
<path fill-rule="evenodd" clip-rule="evenodd" d="M255.834 247.079C257.455 247.095 259.014 247.438 260.51 248.108C261.378 252.012 259.819 253.385 255.834 252.226C254.084 250.47 254.084 248.754 255.834 247.079Z" fill="#080B07"/>
<path fill-rule="evenodd" clip-rule="evenodd" d="M331.984 250.51C336.601 250.823 340.832 252.309 344.675 254.971C347.276 257.541 347.276 260.057 344.675 262.519C339.08 264.492 334.293 263.234 330.314 258.745C328.775 255.557 329.331 252.812 331.984 250.51Z" fill="#047857"/>
<path fill-rule="evenodd" clip-rule="evenodd" d="M144.281 259.431C146.519 259.318 148.746 259.433 150.961 259.774C151.694 262.722 150.581 264.781 147.621 265.951C144.68 266.727 142.676 265.698 141.61 262.862C142.028 261.293 142.919 260.149 144.281 259.431Z" fill="#047857"/>
<path fill-rule="evenodd" clip-rule="evenodd" d="M319.96 258.745C328.172 257.69 331.846 261.349 330.982 269.725C325.097 271.221 319.975 269.62 315.618 264.921C315.173 263.777 315.173 262.634 315.618 261.49C316.963 260.29 318.41 259.375 319.96 258.745Z" fill="#047857"/>
<path fill-rule="evenodd" clip-rule="evenodd" d="M158.309 265.607C161.789 265.062 163.125 266.434 162.317 269.725C160.272 271.836 157.823 272.637 154.969 272.127C154.25 270.942 154.139 269.684 154.635 268.352C155.846 267.339 157.07 266.424 158.309 265.607Z" fill="#047857"/>
<path fill-rule="evenodd" clip-rule="evenodd" d="M378.742 271.784C381.019 271.611 383.246 271.841 385.422 272.47C386.648 275.926 385.535 278.328 382.082 279.675C377.366 280.548 375.696 278.604 377.072 273.842C377.77 273.243 378.327 272.557 378.742 271.784Z" fill="#047857"/>
<path fill-rule="evenodd" clip-rule="evenodd" d="M168.997 272.47C173.667 272.448 174.781 274.392 172.337 278.303C170.794 278.644 169.235 278.758 167.661 278.646C167.465 276.413 167.911 274.354 168.997 272.47Z" fill="#047857"/>
<path fill-rule="evenodd" clip-rule="evenodd" d="M203.732 275.215C207.705 274.995 209.597 276.824 209.409 280.705C207.461 282.004 205.346 282.347 203.064 281.734C200.311 279.215 200.533 277.042 203.732 275.215Z" fill="#060805"/>
<path fill-rule="evenodd" clip-rule="evenodd" d="M360.039 280.019C366.075 279.488 368.857 282.233 368.388 288.253C366.368 290.856 363.697 291.999 360.373 291.685C355.148 292.263 353.367 289.975 355.029 284.822C356.629 283.061 358.299 281.46 360.039 280.019Z" fill="#047857"/>
<path fill-rule="evenodd" clip-rule="evenodd" d="M145.617 281.391C150.341 280.762 152.79 282.82 152.965 287.567C149.099 288.435 146.205 287.177 144.281 283.793C144.601 282.899 145.046 282.099 145.617 281.391Z" fill="#047857"/>
<path fill-rule="evenodd" clip-rule="evenodd" d="M183.024 284.136C185.824 284.194 187.605 285.566 188.368 288.253C188.349 289.303 187.903 290.104 187.032 290.655C180.537 292.962 174.526 296.164 168.997 300.263C166.728 301.66 164.613 301.545 162.651 299.92C162.23 298.271 162.787 297.012 164.321 296.145C167.294 296.056 170.188 295.599 173.005 294.773C176.517 291.281 179.857 287.735 183.024 284.136Z" fill="#070905"/>
<path fill-rule="evenodd" clip-rule="evenodd" d="M283.889 287.567C286.349 287.454 288.797 287.568 291.237 287.91C291.988 288.081 292.656 288.424 293.241 288.94C291.084 290.02 288.968 291.164 286.895 292.371C286.537 293.789 286.871 295.048 287.897 296.145C298.33 298.189 307.904 302.306 316.62 308.498C321.053 310.545 325.506 312.603 329.98 314.674C346.529 325.958 362.894 337.509 379.076 349.329C379.637 351.141 379.303 352.742 378.074 354.133C368.278 360.768 358.258 367.058 348.015 373.005C342.303 375.501 336.513 377.788 330.648 379.867C328.019 381.889 325.236 383.604 322.298 385.014C320.773 384.706 319.771 383.79 319.292 382.269C324.926 376.828 329.936 370.881 334.322 364.427C335.474 362.248 336.364 359.961 336.993 357.564C337.669 353.167 338.56 348.821 339.665 344.526C341.001 343.611 342.337 342.695 343.673 341.781C344.423 339.409 343.867 337.464 342.003 335.947C335.995 331.488 329.761 327.37 323.3 323.595C319.744 321.296 315.958 320.725 311.944 321.879C311.333 322.448 310.888 323.134 310.608 323.938C311.962 325.787 313.521 327.388 315.284 328.742C314.113 330.461 313.111 332.29 312.278 334.232C309.935 344.79 306.373 354.855 301.591 364.427C299.109 367.891 295.881 370.293 291.905 371.632C285.761 377.193 278.859 381.539 271.197 384.671C256.777 386.417 242.304 387.104 227.779 386.73C213.049 382.767 200.246 375.332 189.37 364.427C189.259 364.198 189.148 363.969 189.036 363.74C190.777 362.95 192.558 362.836 194.38 363.397C198.099 364.621 201.662 366.222 205.068 368.201C206.032 368.737 206.923 368.622 207.739 367.858C195.448 359.805 185.651 349.283 178.348 336.291C175.407 335.75 174.071 333.92 174.341 330.801C174.468 328.348 175.136 326.061 176.344 323.938C175.099 323.138 173.985 323.367 173.005 324.624C171.093 328.997 170.536 333.572 171.335 338.349C172.813 343.819 174.817 349.081 177.346 354.133C179.868 366.981 185.768 377.847 195.048 386.73C198.448 388.429 201.788 390.259 205.068 392.219C206.243 392.882 206.466 393.683 205.736 394.621C202.134 395.788 198.795 395.216 195.716 392.906C194.132 391.049 192.351 389.448 190.372 388.102C188.368 387.644 186.364 387.644 184.36 388.102C181.562 389.651 178.667 389.994 175.677 389.131C174.839 387.924 175.061 386.895 176.344 386.043C178.258 385.469 180.151 384.897 182.022 384.328C182.468 382.727 182.468 381.125 182.022 379.524C175.051 371.61 170.152 362.46 167.327 352.074C166.133 349.276 164.686 346.646 162.985 344.182C161.17 343.474 159.945 344.045 159.311 345.898C158.527 349.501 158.081 353.161 157.975 356.878C156.782 359.213 155.112 359.556 152.965 357.907C152.025 355.769 151.135 353.596 150.293 351.388C147.723 348.3 145.941 348.643 144.949 352.417C147.136 360.298 152.256 363.501 160.313 362.025C163.337 365.382 166.12 368.928 168.663 372.662C171.949 380.667 169.389 384.898 160.981 385.357C155.637 382.384 150.293 379.409 144.949 376.436C143.72 373.946 141.716 372.574 138.938 372.318C131.156 371.57 123.363 370.883 115.558 370.26C112.275 367.347 109.492 364.031 107.209 360.309C107.058 355.51 108.394 351.164 111.217 347.27C117.553 339.839 125.457 335.15 134.93 333.202C135.069 328.883 136.405 324.994 138.938 321.536C144.708 319.708 150.497 317.878 156.305 316.046C161.496 313.38 166.84 311.092 172.337 309.184C183.221 306.618 193.908 303.415 204.4 299.577C209.27 298.835 214.168 298.378 219.095 298.204C223.304 297.18 227.535 296.265 231.787 295.459C246.034 295.623 260.285 295.623 274.537 295.459C278.019 294.942 280.245 292.997 281.217 289.626C282.153 288.925 283.044 288.239 283.889 287.567Z" fill="#020201"/>
<path fill-rule="evenodd" clip-rule="evenodd" d="M368.722 295.802C372.541 295.725 374.434 297.555 374.4 301.292C369.819 303.903 367.593 302.53 367.72 297.175C368.199 296.801 368.533 296.344 368.722 295.802Z" fill="#047857"/>
<path fill-rule="evenodd" clip-rule="evenodd" d="M386.09 306.782C389.631 306.507 392.637 307.651 395.108 310.213C395.553 311.128 395.553 312.043 395.108 312.958C392.895 314.43 391.002 316.26 389.43 318.448C390.123 321.778 392.127 323.493 395.442 323.595C397.252 324.597 397.697 325.969 396.778 327.713C394.684 328.255 392.68 328.026 390.766 327.026C386.679 324.2 383.005 320.884 379.744 317.076C378.827 315.569 378.605 313.968 379.076 312.272C380.983 309.725 383.321 307.896 386.09 306.782Z" fill="#047857"/>
<path fill-rule="evenodd" clip-rule="evenodd" d="M253.162 307.468C253.865 307.366 254.533 307.48 255.166 307.811C251.947 312.721 247.717 316.381 242.474 318.791C238.996 323.858 240.11 327.404 245.814 329.428C246.037 330 246.26 330.572 246.482 331.144C245.299 333.162 243.74 334.878 241.806 336.291C239.501 345.366 234.157 347.997 225.775 344.182C218.709 339.149 214.033 332.401 211.747 323.938C212.858 319.934 215.307 317.074 219.095 315.36C225.961 314.017 232.864 312.873 239.802 311.929C244.481 310.898 248.934 309.411 253.162 307.468Z" fill="#047857"/>
<path fill-rule="evenodd" clip-rule="evenodd" d="M283.889 315.703C284.78 315.703 285.671 315.703 286.561 315.703C286.759 323.994 286.202 332.229 284.891 340.408C281.51 351.145 274.942 359.037 265.186 364.083C262.514 364.541 259.842 364.541 257.17 364.083C249.404 359.206 245.508 361.38 245.48 370.603C243.838 372.387 242.168 372.387 240.47 370.603C239.615 367.944 238.724 365.313 237.799 362.711C236.514 362.156 235.178 361.813 233.791 361.682C231.171 362.295 228.721 363.324 226.443 364.77C222.749 365.397 219.187 364.939 215.755 363.397C209.668 358.845 203.545 354.384 197.386 350.015C195.498 345.677 193.272 341.56 190.706 337.663C189.601 333.587 188.933 329.47 188.702 325.311C190.355 323.235 192.359 322.778 194.714 323.938C194.993 325.508 194.548 326.881 193.378 328.056C192.355 334.152 193.914 339.413 198.054 343.839C203.502 349.889 209.625 355.036 216.423 359.28C219.159 360.803 222.053 361.261 225.107 360.652C225.552 360.195 225.997 359.737 226.443 359.28C220.19 355.604 214.735 350.914 210.077 345.212C209.618 344.641 209.729 344.184 210.411 343.839C215.965 347.15 221.532 350.468 227.111 353.79C239.4 359.635 251.646 359.635 263.85 353.79C267.003 353.25 270.119 352.564 273.201 351.731C278.833 344.423 282.172 336.074 283.221 326.683C282.164 322.842 282.387 319.183 283.889 315.703Z" fill="#047857"/>
<path fill-rule="evenodd" clip-rule="evenodd" d="M141.61 324.624C142.723 324.624 143.836 324.624 144.949 324.624C144.949 325.997 144.949 327.369 144.949 328.742C143.036 329.047 141.366 328.59 139.94 327.369C139.494 326.912 139.494 326.455 139.94 325.997C140.604 325.608 141.161 325.151 141.61 324.624Z" fill="#047857"/>
<path fill-rule="evenodd" clip-rule="evenodd" d="M318.624 330.114C326.257 330.173 330.933 334.062 332.652 341.781C329.489 348.052 326.483 354.458 323.634 360.995C319.876 366.001 315.868 370.805 311.61 375.407C308.942 380.414 306.27 385.447 303.595 390.504C301.539 392.775 299.201 393.118 296.581 391.533C293.981 390.158 293.425 388.214 294.911 385.7C300.872 380.266 305.548 373.86 308.938 366.485C322.466 357.881 325.027 346.558 316.62 332.516C317.002 331.419 317.669 330.618 318.624 330.114Z" fill="#040603"/>
<path opacity="0.998" fill-rule="evenodd" clip-rule="evenodd" d="M452.888 369.23C461.296 384.446 469.534 399.772 477.603 415.209C475.526 416.252 473.3 416.824 470.923 416.924C470.186 418.077 470.409 419.107 471.591 420.012C473.506 420.48 475.176 421.396 476.601 422.757C477.047 423.672 477.047 424.588 476.601 425.502C473.859 427.831 470.853 428.175 467.583 426.532C462.99 423.05 457.868 420.763 452.22 419.669C445.762 419.212 439.306 419.212 432.848 419.669C431.792 420.154 430.79 420.726 429.843 421.385C428.253 423.807 428.81 425.522 431.512 426.532C433.739 427.218 435.966 427.904 438.192 428.59C441.995 431.018 446.003 432.962 450.216 434.424C455.79 433.438 461.356 432.409 466.915 431.335C471.814 430.878 476.713 430.878 481.611 431.335C482.567 431.655 483.346 432.227 483.949 433.051C484.281 434.867 484.392 436.697 484.283 438.541C478.503 439.228 472.714 439.342 466.915 438.884C465.497 439.654 464.272 440.683 463.241 441.972C462.25 446.525 459.578 447.898 455.226 446.09C452.193 447.205 449.076 447.891 445.874 448.148C440.459 446.596 435.003 445.338 429.509 444.374C428.718 446.819 429.386 448.878 431.512 450.55C435.625 452.547 439.745 454.491 443.87 456.383C444.578 459.146 445.358 461.891 446.208 464.618C446.599 464.475 446.933 464.246 447.21 463.932C447.92 460.143 449.034 456.482 450.55 452.952C452.358 450.526 454.696 449.725 457.564 450.55C461.976 452.093 463.869 455.181 463.241 459.815C459.095 463.846 454.753 467.621 450.216 471.138C445.294 472.709 442.845 470.88 442.868 465.648C438.807 464.181 434.8 462.579 430.845 460.844C428.221 459.935 425.549 459.706 422.829 460.158C422.21 463.308 420.428 465.367 417.485 466.334C412.001 467.853 406.434 468.311 400.785 467.706C398.982 467.055 398.425 465.797 399.116 463.932C401.898 460.845 405.35 459.129 409.469 458.785C413.064 458.575 416.627 458.117 420.157 457.413C422.712 456.199 422.712 454.827 420.157 453.295C413.783 449.355 406.88 447.639 399.45 448.148C393.272 447.534 387.594 448.906 382.416 452.266C381.97 453.181 381.97 454.096 382.416 455.011C384.607 457.917 387.39 460.09 390.766 461.53C391.6 463.047 391.489 464.533 390.432 465.991C384.789 471.97 378.443 472.999 371.394 469.079C374.316 467.619 377.099 465.903 379.744 463.932C380.384 462.766 380.718 461.508 380.746 460.158C380.747 455.876 378.743 453.703 374.734 453.638C371.195 454.436 367.633 454.779 364.047 454.668C361.765 450.833 362.655 448.088 366.719 446.433C371.831 445.462 376.953 444.547 382.082 443.688C383.868 443.001 385.427 441.972 386.758 440.6C387.604 439.316 387.604 438.058 386.758 436.825C381.022 433.176 374.787 431.803 368.054 432.708C354.36 435.139 340.778 438.112 327.308 441.629C302.848 444.444 278.356 446.961 253.83 449.178C228.638 449.771 203.478 449.085 178.348 447.119C174.576 446.666 171.013 445.522 167.661 443.688C162.531 443.636 157.409 443.979 152.297 444.717C146.613 443.724 141.047 442.237 135.598 440.257C130.728 439.515 125.829 439.058 120.902 438.884C118.281 436.95 118.281 434.892 120.902 432.708C124.968 431.294 128.976 431.523 132.926 433.394C135.075 435.3 137.525 436.672 140.274 437.512C159.878 438.569 179.473 440.056 199.056 441.972C209.564 440.858 220.029 441.086 230.451 442.658C233.123 442.315 235.795 441.972 238.467 441.629C249.6 441.401 260.732 441.171 271.866 440.943C274.881 440.253 277.776 439.224 280.549 437.855C282.056 439.848 284.059 440.992 286.561 441.286C302.701 437.993 318.732 434.218 334.656 429.963C344.13 427.86 353.704 426.487 363.379 425.845C372.933 423.47 382.508 421.183 392.102 418.983C395.581 417.068 395.581 415.009 392.102 412.807C388.106 410.795 383.876 409.652 379.41 409.376C377.334 408.044 376.889 406.215 378.074 403.886C380.254 402.611 382.592 401.81 385.088 401.484C389.563 402.467 393.682 404.297 397.446 406.974C398.996 405.169 400.22 403.11 401.119 400.798C403.095 398.296 405.545 396.466 408.467 395.308C409.827 392.698 409.27 390.525 406.797 388.788C403.548 387.677 400.43 386.305 397.446 384.671C395.056 383.4 394.388 381.57 395.442 379.181C398.387 376.723 401.727 375.808 405.461 376.436C409.024 379.639 412.587 382.841 416.149 386.043C418.815 387.585 421.598 388.842 424.499 389.818C433.673 393.387 441.466 391.329 447.878 383.641C449.863 378.806 448.637 375.146 444.204 372.662C443.389 372.927 442.944 373.499 442.868 374.377C446.313 380.246 444.643 383.563 437.858 384.328C427.79 380.242 418.104 375.324 408.801 369.573C407.08 368.716 405.299 368.486 403.457 368.887C398.52 371.941 393.732 375.258 389.096 378.838C387.022 382.517 387.133 386.176 389.43 389.818C388.927 391.364 388.036 392.622 386.758 393.592C382.504 396.576 377.828 398.635 372.73 399.768C358.279 401.854 344.029 400.94 329.98 397.023C326.921 395.941 324.917 396.97 323.968 400.111C325.181 402.609 326.517 405.01 327.976 407.317C327.803 408.182 327.357 408.868 326.64 409.376C323.929 409.609 321.257 410.067 318.624 410.748C315.005 413.413 310.997 414.671 306.6 414.522C306.435 412.46 307.103 410.745 308.604 409.376C311.276 409.147 313.948 408.918 316.62 408.689C318.311 408.269 318.868 407.24 318.29 405.601C316.227 403.671 313.778 402.528 310.942 402.17C298.786 406.955 286.206 409.815 273.201 410.748C271.634 411.443 270.521 412.587 269.862 414.179C271.403 415.73 273.073 417.217 274.871 418.64C275.317 419.326 275.317 420.012 274.871 420.699C269.469 421.524 265.572 419.352 263.182 414.179C257.196 409.911 253.522 411.397 252.16 418.64C249.693 421.206 247.132 421.321 244.478 418.983C241.094 414.325 236.529 411.694 230.785 411.091C226.99 411.596 226.21 413.427 228.447 416.581C230.745 417.341 232.081 418.942 232.455 421.385C231.181 424.297 229.288 424.754 226.777 422.757C226.006 417.393 223.223 413.619 218.427 411.434C210.71 409.903 202.917 408.987 195.048 408.689C191.593 408.262 188.476 407.004 185.696 404.915C186.75 404.367 187.863 404.024 189.036 403.886C199.056 403.428 209.075 403.428 219.095 403.886C236.317 407.379 253.462 407.036 270.53 402.856C275.372 404.078 280.271 404.421 285.225 403.886C291.008 401.832 296.797 399.773 302.593 397.709C310.335 397.309 317.905 395.937 325.304 393.592C330.72 389.895 336.51 386.921 342.671 384.671C346.473 382.26 350.035 379.515 353.359 376.436C356.715 375.805 360.055 375.119 363.379 374.377C367.982 369.184 373.326 365.066 379.41 362.025C381.192 360.195 382.972 358.365 384.754 356.535C388.93 354.962 390.822 356.449 390.432 360.995C384.797 366.903 378.674 372.163 372.062 376.779C371.471 377.345 371.248 378.031 371.394 378.838C373.245 378.892 375.026 378.549 376.738 377.808C381.529 374.776 386.205 371.574 390.766 368.201C393.52 366.188 395.301 363.556 396.11 360.309C400.305 359.689 404.313 358.431 408.133 356.535C411.905 353.225 415.913 350.251 420.157 347.614C422.924 347.115 425.596 346.428 428.173 345.555C432.444 344.674 436.341 345.475 439.862 347.957C441.006 351.139 442.342 354.112 443.87 356.878C442.454 358.889 440.562 360.147 438.192 360.652C431.261 360.529 424.358 360.072 417.485 359.28C416.719 364.014 418.723 366.988 423.497 368.201C429.987 368.572 436.444 368.229 442.868 367.172C446.411 366.925 449.751 367.611 452.888 369.23Z" fill="#030403"/>
<path fill-rule="evenodd" clip-rule="evenodd" d="M135.598 379.524C139.324 379.256 141.774 380.857 142.946 384.328C140.391 389.24 137.162 389.697 133.26 385.7C132.368 382.881 133.148 380.822 135.598 379.524Z" fill="#070906"/>
<path fill-rule="evenodd" clip-rule="evenodd" d="M352.691 385.014C357.141 384.669 358.811 386.727 357.701 391.19C354.979 393.873 352.307 393.873 349.685 391.19C349.269 388.385 350.271 386.326 352.691 385.014Z" fill="#047857"/>
<path fill-rule="evenodd" clip-rule="evenodd" d="M368.722 388.445C372.51 388.335 374.402 390.165 374.4 393.935C370.843 396.355 368.505 395.44 367.387 391.19C367.841 390.257 368.286 389.342 368.722 388.445Z" fill="#047857"/>
<path fill-rule="evenodd" clip-rule="evenodd" d="M123.574 393.935C128.202 394.01 130.763 396.298 131.256 400.798C126.742 402.66 123.514 401.173 121.57 396.337C121.952 395.24 122.62 394.439 123.574 393.935Z" fill="#090D08"/>
<path fill-rule="evenodd" clip-rule="evenodd" d="M447.544 395.994C453.357 395.036 458.145 396.866 461.905 401.484C462.18 405.898 460.065 408.186 455.56 408.346C451.368 408.197 448.14 406.367 445.874 402.856C445.113 400.165 445.67 397.878 447.544 395.994Z" fill="#047857"/>
<path fill-rule="evenodd" clip-rule="evenodd" d="M146.953 399.425C150.258 398.827 153.041 399.741 155.303 402.17C155.365 404.633 154.14 406.12 151.629 406.631C148.874 407.217 146.202 406.987 143.614 405.944C142.197 404.899 141.975 403.641 142.946 402.17C144.141 400.924 145.477 400.009 146.953 399.425Z" fill="#070906"/>
<path fill-rule="evenodd" clip-rule="evenodd" d="M414.813 399.425C424.066 398.82 432.416 401.336 439.862 406.974C440.711 409.49 439.932 411.205 437.524 412.121C427.153 416.92 416.465 417.835 405.461 414.866C402.289 412.041 402.067 409.067 404.793 405.944C406.405 405.612 407.964 405.841 409.469 406.631C411.251 408.232 413.031 409.833 414.813 411.434C416.876 412.016 418.768 411.672 420.491 410.405C420.948 409.524 420.836 408.723 420.157 408.003C418.375 407.775 416.594 407.545 414.813 407.317C412.333 406.156 411.554 404.212 412.475 401.484C413.24 400.704 414.019 400.018 414.813 399.425Z" fill="#047857"/>
<path fill-rule="evenodd" clip-rule="evenodd" d="M110.215 406.974C116.888 407.784 117.334 410.186 111.551 414.179C109.992 414.637 108.433 414.637 106.875 414.179C106.412 411.123 107.525 408.721 110.215 406.974Z" fill="#080B07"/>
<path fill-rule="evenodd" clip-rule="evenodd" d="M56.1083 407.66C59.6098 407.333 62.9497 407.904 66.1279 409.376C69.5881 412.524 69.5881 415.498 66.1279 418.297C61.1976 418.977 56.5217 418.177 52.1004 415.895C50.9273 414.734 50.5933 413.362 51.0984 411.777C52.5237 409.957 54.1936 408.584 56.1083 407.66Z" fill="#047857"/>
<path fill-rule="evenodd" clip-rule="evenodd" d="M358.703 407.66C365.153 408.019 365.821 410.421 360.707 414.866C355.891 416.904 350.992 418.734 346.011 420.356C324.995 425.406 303.843 429.752 282.553 433.394C266.733 433.656 250.924 434.227 235.127 435.11C220.676 434.12 206.202 433.548 191.708 433.394C185.243 432.535 178.786 431.62 172.337 430.649C170.241 430.237 168.237 429.551 166.325 428.59C164.476 426.601 164.922 425.229 167.661 424.473C169.665 424.358 171.669 424.244 173.673 424.13C180.649 424.606 187.551 425.636 194.38 427.218C225.12 427.864 255.847 427.636 286.561 426.532C310.811 420.708 334.859 414.417 358.703 407.66Z" fill="#040503"/>
<path fill-rule="evenodd" clip-rule="evenodd" d="M189.704 412.464C195.225 413.382 196.115 415.784 192.376 419.669C190.043 420.358 187.928 420.015 186.03 418.64C185.585 417.725 185.585 416.81 186.03 415.895C187.186 414.59 188.41 413.446 189.704 412.464Z" fill="#060805"/>
<path fill-rule="evenodd" clip-rule="evenodd" d="M125.578 413.15C128.984 412.927 132.324 413.27 135.598 414.179C137.531 416.176 138.087 418.577 137.268 421.385C136.391 422.121 135.389 422.579 134.262 422.757C131.121 422.455 128.226 421.426 125.578 419.669C123.092 417.567 123.092 415.394 125.578 413.15Z" fill="#050604"/>
<path fill-rule="evenodd" clip-rule="evenodd" d="M291.237 413.836C293.827 413.652 295.274 414.796 295.579 417.267C293.181 419.254 291.289 418.797 289.901 415.895C290.364 415.196 290.809 414.51 291.237 413.836Z" fill="#090C07"/>
<path fill-rule="evenodd" clip-rule="evenodd" d="M152.297 417.954C155.023 417.666 156.359 418.924 156.305 421.728C155.834 426.655 153.385 428.256 148.957 426.532C147.744 422.731 148.858 419.872 152.297 417.954Z" fill="#080A06"/>
<path fill-rule="evenodd" clip-rule="evenodd" d="M402.789 424.816C409.547 424.567 416.003 425.825 422.161 428.59C426.083 432.862 425.638 436.522 420.825 439.57C411.619 440.923 402.935 439.321 394.774 434.767C391.06 431.663 391.282 428.918 395.442 426.532C397.988 425.986 400.437 425.414 402.789 424.816Z" fill="#047857"/>
<path opacity="0.992" fill-rule="evenodd" clip-rule="evenodd" d="M490.963 440.6C493.749 444.949 496.198 449.524 498.31 454.325C497.729 457.181 495.948 458.668 492.967 458.785C491.956 460.469 492.401 461.613 494.302 462.216C496.529 462.445 498.756 462.674 500.982 462.903C504.696 466.006 504.474 468.751 500.314 471.138C489.841 472.109 479.376 472.452 468.919 472.167C465.844 471.36 465.176 469.758 466.915 467.363C469.79 465.501 472.908 464.243 476.267 463.589C478.656 462.318 479.324 460.488 478.271 458.099C475.154 457.87 472.037 457.641 468.919 457.413C467.513 455.327 466.511 453.155 465.913 450.893C467.338 449.279 469.12 448.592 471.257 448.835C474.866 449.933 478.539 450.276 482.279 449.864C485.541 448.31 487.211 445.679 487.289 441.972C488.253 440.836 489.478 440.379 490.963 440.6Z" fill="#030402"/>
<path fill-rule="evenodd" clip-rule="evenodd" d="M340.667 448.835C344.538 448.4 347.21 450.001 348.683 453.638C348.264 454.845 347.596 455.874 346.679 456.726C341.301 459.891 336.068 459.776 330.982 456.383C330.561 454.734 331.117 453.476 332.652 452.609C335.291 451.137 337.963 449.878 340.667 448.835Z" fill="#050804"/>
<path fill-rule="evenodd" clip-rule="evenodd" d="M116.226 449.521C120.572 450.037 124.579 451.523 128.25 453.981C130.614 454.175 132.952 454.518 135.264 455.011C138.019 454.275 140.801 454.161 143.614 454.668C147.282 456.687 147.727 459.203 144.949 462.216C142.5 462.674 140.051 462.674 137.602 462.216C134.322 460.416 130.982 458.815 127.582 457.413C122.616 456.994 117.717 457.223 112.886 458.099C111.605 456.884 111.271 455.397 111.885 453.638C112.882 451.707 114.329 450.335 116.226 449.521Z" fill="#060805"/>
<path fill-rule="evenodd" clip-rule="evenodd" d="M314.616 452.266C321.069 452.739 321.737 455.37 316.62 460.158C311.78 462.832 307.326 462.374 303.26 458.785C306.512 455.517 310.297 453.343 314.616 452.266Z" fill="#050604"/>
<path fill-rule="evenodd" clip-rule="evenodd" d="M183.024 452.266C185.814 451.814 186.816 452.958 186.03 455.697C184.018 458.428 182.348 458.314 181.02 455.354C181.326 454.023 181.994 452.993 183.024 452.266Z" fill="#090C07"/>
<path fill-rule="evenodd" clip-rule="evenodd" d="M283.889 454.325C289.478 454.209 291.037 456.61 288.565 461.53C285.643 462.961 282.859 462.846 280.215 461.187C279.77 460.043 279.77 458.9 280.215 457.756C281.371 456.451 282.595 455.307 283.889 454.325Z" fill="#030503"/>
<path fill-rule="evenodd" clip-rule="evenodd" d="M256.502 455.697C263.975 455.746 264.42 457.691 257.838 461.53C252.344 460.873 251.9 458.929 256.502 455.697Z" fill="#0A0D08"/>
<path fill-rule="evenodd" clip-rule="evenodd" d="M227.779 456.383C230.84 455.589 232.622 456.733 233.123 459.815C231.972 463.037 229.745 464.295 226.443 463.589C225.725 463.082 225.28 462.396 225.107 461.53C225.746 459.644 226.637 457.928 227.779 456.383Z" fill="#080B07"/>
<path fill-rule="evenodd" clip-rule="evenodd" d="M350.019 465.304C353.003 465.053 355.897 465.396 358.703 466.334C361.765 469.804 361.097 472.32 356.699 473.882C353.399 474.597 350.282 474.139 347.347 472.51C345.928 471.318 345.371 469.831 345.677 468.049C347.022 466.85 348.469 465.934 350.019 465.304Z" fill="#040604"/>
<path fill-rule="evenodd" clip-rule="evenodd" d="M185.028 465.991C187.044 465.877 189.048 465.992 191.04 466.334C192.923 469.599 192.478 472.573 189.704 475.255C186.02 476.011 182.568 475.438 179.35 473.539C178.845 471.955 179.179 470.582 180.352 469.422C181.838 468.095 183.397 466.951 185.028 465.991Z" fill="#040603"/>
<path fill-rule="evenodd" clip-rule="evenodd" d="M321.296 465.991C325.119 465.532 328.682 466.219 331.984 468.049C332.595 468.618 333.04 469.304 333.32 470.108C331.173 473.106 328.278 474.822 324.636 475.255C322.632 475.713 320.628 475.713 318.624 475.255C317.473 474.723 316.805 473.808 316.62 472.51C317.327 469.622 318.885 467.449 321.296 465.991Z" fill="#050604"/>
<path fill-rule="evenodd" clip-rule="evenodd" d="M215.755 465.991C217.081 465.98 217.749 466.666 217.759 468.049C217.624 469.712 216.845 470.856 215.421 471.481C214.264 471.32 213.707 470.634 213.751 469.422C214.147 468.102 214.815 466.959 215.755 465.991Z" fill="#080B07"/>
<path fill-rule="evenodd" clip-rule="evenodd" d="M38.7408 468.049C41.1873 468.575 43.6366 469.147 46.0886 469.765C46.8933 472.533 46.0027 474.592 43.4167 475.941C40.2625 476.474 37.1452 476.36 34.065 475.598C32.7663 471.17 34.3249 468.654 38.7408 468.049Z" fill="#060805"/>
<path fill-rule="evenodd" clip-rule="evenodd" d="M235.127 468.736C236.701 468.624 238.26 468.738 239.803 469.079C240.752 472.028 239.638 473.858 236.463 474.569C230.948 473.874 230.504 471.929 235.127 468.736Z" fill="#0A0D08"/>
<path fill-rule="evenodd" clip-rule="evenodd" d="M293.909 468.736C297.54 467.972 300.212 469.23 301.925 472.51C301.479 473.883 300.589 474.797 299.253 475.255C297.249 475.713 295.245 475.713 293.241 475.255C291.696 474.815 290.582 473.9 289.901 472.51C290.742 470.613 292.078 469.355 293.909 468.736Z" fill="#060905"/>
<path fill-rule="evenodd" clip-rule="evenodd" d="M255.166 468.736C259.135 468.329 260.137 469.93 258.172 473.539C255.766 476.432 253.873 476.203 252.494 472.853C253.117 471.299 254.007 469.926 255.166 468.736Z" fill="#0A0E08"/>
</g>
<defs>
<clipPath id="clip0_12_2">
<rect width="509" height="444" fill="white" transform="translate(1 34)"/>
</clipPath>
</defs>
</svg>
